<mxfile host="65bd71144e">
    <diagram id="F9RuldsObmJXAy2QWL_w" name="Page-1">
        <mxGraphModel dx="1304" dy="787" grid="1" gridSize="10" guides="1" tooltips="1" connect="1" arrows="1" fold="1" page="1" pageScale="1" pageWidth="2720" pageHeight="2200" math="0" shadow="0">
            <root>
                <mxCell id="0"/>
                <mxCell id="1" parent="0"/>
                <mxCell id="5" value="&lt;p style=&quot;line-height: 100%;&quot;&gt;&lt;font style=&quot;font-size: 20px;&quot;&gt;K&amp;amp;S&lt;/font&gt;&lt;/p&gt;" style="swimlane;whiteSpace=wrap;html=1;spacing=2;fontStyle=1;strokeWidth=3;movable=0;resizable=0;rotatable=0;deletable=0;editable=0;connectable=0;" parent="1" vertex="1">
                    <mxGeometry x="40" y="40" width="2640" height="2120" as="geometry">
                        <mxRectangle x="40" y="40" width="80" height="50" as="alternateBounds"/>
                    </mxGeometry>
                </mxCell>
                <mxCell id="43" value="" style="swimlane;startSize=0;strokeWidth=3;fontSize=20;" parent="5" vertex="1">
                    <mxGeometry x="800" y="80" width="160" height="160" as="geometry"/>
                </mxCell>
                <mxCell id="49" value="Микросервис&lt;br&gt;Frontend&lt;br&gt;Angular" style="text;html=1;align=center;verticalAlign=middle;resizable=0;points=[];autosize=1;strokeColor=none;fillColor=none;fontSize=20;" parent="43" vertex="1">
                    <mxGeometry x="5" y="35" width="150" height="90" as="geometry"/>
                </mxCell>
                <mxCell id="37" value="" style="swimlane;startSize=0;fontSize=20;strokeWidth=3;" parent="5" vertex="1">
                    <mxGeometry x="800" y="320" width="160" height="160" as="geometry">
                        <mxRectangle x="240" y="290" width="50" height="40" as="alternateBounds"/>
                    </mxGeometry>
                </mxCell>
                <mxCell id="38" value="NGINX" style="text;html=1;align=center;verticalAlign=middle;resizable=0;points=[];autosize=1;strokeColor=none;fillColor=none;fontSize=20;" parent="37" vertex="1">
                    <mxGeometry x="35" y="60" width="90" height="40" as="geometry"/>
                </mxCell>
                <mxCell id="22" value="" style="swimlane;startSize=0;strokeWidth=3;fontSize=16;" parent="5" vertex="1">
                    <mxGeometry x="600" y="560" width="160" height="160" as="geometry"/>
                </mxCell>
                <mxCell id="11" value="Микросервис&lt;br style=&quot;font-size: 20px;&quot;&gt;сообщений&lt;br&gt;&lt;br&gt;*" style="text;html=1;align=center;verticalAlign=middle;resizable=0;points=[];autosize=1;strokeColor=none;fillColor=none;fontSize=20;" parent="22" vertex="1">
                    <mxGeometry x="5" y="25" width="150" height="110" as="geometry"/>
                </mxCell>
                <mxCell id="20" value="" style="swimlane;startSize=0;strokeWidth=3;fontSize=16;" parent="5" vertex="1">
                    <mxGeometry x="600" y="800" width="160" height="160" as="geometry"/>
                </mxCell>
                <mxCell id="10" value="Микросервис&lt;br style=&quot;font-size: 20px;&quot;&gt;чатов&lt;br&gt;&lt;br&gt;*" style="text;html=1;align=center;verticalAlign=middle;resizable=0;points=[];autosize=1;strokeColor=none;fillColor=none;fontSize=20;" parent="20" vertex="1">
                    <mxGeometry x="5" y="25" width="150" height="110" as="geometry"/>
                </mxCell>
                <mxCell id="26" value="" style="swimlane;startSize=0;fontSize=20;strokeWidth=3;" parent="5" vertex="1">
                    <mxGeometry x="1000" y="560" width="160" height="160" as="geometry">
                        <mxRectangle x="240" y="290" width="50" height="40" as="alternateBounds"/>
                    </mxGeometry>
                </mxCell>
                <mxCell id="14" value="&lt;font style=&quot;font-size: 20px;&quot;&gt;Микросервис&lt;br&gt;Gateway&lt;br&gt;&lt;br&gt;*&lt;br&gt;&lt;/font&gt;" style="text;html=1;align=center;verticalAlign=middle;resizable=0;points=[];autosize=1;strokeColor=none;fillColor=none;fontSize=20;" parent="26" vertex="1">
                    <mxGeometry x="5" y="25" width="150" height="110" as="geometry"/>
                </mxCell>
                <mxCell id="24" value="" style="swimlane;startSize=0;strokeWidth=3;fontSize=16;" parent="5" vertex="1">
                    <mxGeometry x="720" y="1720" width="160" height="160" as="geometry"/>
                </mxCell>
                <mxCell id="12" value="&lt;font style=&quot;font-size: 20px;&quot;&gt;Микросервис&lt;br style=&quot;&quot;&gt;уведомлений&lt;br&gt;&lt;br&gt;*&lt;br&gt;&lt;/font&gt;" style="text;html=1;align=center;verticalAlign=middle;resizable=0;points=[];autosize=1;strokeColor=none;fillColor=none;fontSize=20;" parent="24" vertex="1">
                    <mxGeometry x="5" y="25" width="150" height="110" as="geometry"/>
                </mxCell>
                <mxCell id="25" value="" style="swimlane;startSize=0;strokeWidth=3;fontSize=16;" parent="5" vertex="1">
                    <mxGeometry x="1240" y="760" width="160" height="160" as="geometry"/>
                </mxCell>
                <mxCell id="13" value="&lt;font style=&quot;font-size: 20px;&quot;&gt;Микросервис&lt;br style=&quot;&quot;&gt;auth&lt;br&gt;&lt;br&gt;*&lt;br&gt;&lt;/font&gt;" style="text;html=1;align=center;verticalAlign=middle;resizable=0;points=[];autosize=1;strokeColor=none;fillColor=none;fontSize=18;" parent="25" vertex="1">
                    <mxGeometry x="5" y="25" width="150" height="110" as="geometry"/>
                </mxCell>
                <mxCell id="29" value="" style="swimlane;startSize=0;fontSize=20;strokeWidth=3;" parent="5" vertex="1">
                    <mxGeometry x="840" y="1160" width="160" height="160" as="geometry">
                        <mxRectangle x="240" y="290" width="50" height="40" as="alternateBounds"/>
                    </mxGeometry>
                </mxCell>
                <mxCell id="30" value="&lt;font style=&quot;font-size: 20px;&quot;&gt;Микросервис &lt;br style=&quot;font-size: 20px;&quot;&gt;пользователей&lt;br&gt;&lt;br&gt;*&lt;br&gt;&lt;/font&gt;" style="text;html=1;align=center;verticalAlign=middle;resizable=0;points=[];autosize=1;strokeColor=none;fillColor=none;fontSize=20;" parent="29" vertex="1">
                    <mxGeometry y="25" width="160" height="110" as="geometry"/>
                </mxCell>
                <mxCell id="8" value="" style="swimlane;startSize=0;fontSize=20;strokeWidth=3;" parent="5" vertex="1">
                    <mxGeometry x="1240" y="960" width="160" height="160" as="geometry">
                        <mxRectangle x="240" y="290" width="50" height="40" as="alternateBounds"/>
                    </mxGeometry>
                </mxCell>
                <mxCell id="15" value="&lt;font style=&quot;font-size: 20px;&quot;&gt;Микросервис &lt;br style=&quot;font-size: 20px;&quot;&gt;сессий&lt;br&gt;&lt;br&gt;*&lt;br&gt;&lt;/font&gt;" style="text;html=1;align=center;verticalAlign=middle;resizable=0;points=[];autosize=1;strokeColor=none;fillColor=none;fontSize=20;" parent="8" vertex="1">
                    <mxGeometry x="5" y="25" width="150" height="110" as="geometry"/>
                </mxCell>
                <mxCell id="85" value="" style="endArrow=classic;startArrow=classic;html=1;shadow=0;" parent="5" source="29" target="8" edge="1">
                    <mxGeometry width="50" height="50" relative="1" as="geometry">
                        <mxPoint x="1090" y="1010" as="sourcePoint"/>
                        <mxPoint x="1140" y="960" as="targetPoint"/>
                        <Array as="points">
                            <mxPoint x="920" y="1040"/>
                        </Array>
                    </mxGeometry>
                </mxCell>
                <mxCell id="86" value="" style="endArrow=classic;html=1;shadow=0;exitX=0.75;exitY=1;exitDx=0;exitDy=0;" parent="5" source="26" target="25" edge="1">
                    <mxGeometry width="50" height="50" relative="1" as="geometry">
                        <mxPoint x="1080" y="720" as="sourcePoint"/>
                        <mxPoint x="1140" y="860" as="targetPoint"/>
                        <Array as="points">
                            <mxPoint x="1120" y="840"/>
                        </Array>
                    </mxGeometry>
                </mxCell>
                <mxCell id="87" value="" style="endArrow=classic;html=1;shadow=0;exitX=0.25;exitY=1;exitDx=0;exitDy=0;" parent="5" source="26" target="20" edge="1">
                    <mxGeometry width="50" height="50" relative="1" as="geometry">
                        <mxPoint x="1090" y="810" as="sourcePoint"/>
                        <mxPoint x="1140" y="760" as="targetPoint"/>
                        <Array as="points">
                            <mxPoint x="1040" y="880"/>
                            <mxPoint x="880" y="880"/>
                        </Array>
                    </mxGeometry>
                </mxCell>
                <mxCell id="88" value="" style="endArrow=classic;html=1;shadow=0;" parent="5" source="22" target="20" edge="1">
                    <mxGeometry width="50" height="50" relative="1" as="geometry">
                        <mxPoint x="1090" y="810" as="sourcePoint"/>
                        <mxPoint x="1140" y="760" as="targetPoint"/>
                    </mxGeometry>
                </mxCell>
                <mxCell id="89" value="" style="endArrow=classic;startArrow=classic;html=1;shadow=0;" parent="5" source="22" target="37" edge="1">
                    <mxGeometry width="50" height="50" relative="1" as="geometry">
                        <mxPoint x="1090" y="610" as="sourcePoint"/>
                        <mxPoint x="1140" y="560" as="targetPoint"/>
                        <Array as="points">
                            <mxPoint x="680" y="400"/>
                        </Array>
                    </mxGeometry>
                </mxCell>
                <mxCell id="90" value="" style="endArrow=classic;startArrow=classic;html=1;shadow=0;" parent="5" source="37" target="26" edge="1">
                    <mxGeometry width="50" height="50" relative="1" as="geometry">
                        <mxPoint x="1090" y="610" as="sourcePoint"/>
                        <mxPoint x="1140" y="560" as="targetPoint"/>
                        <Array as="points">
                            <mxPoint x="1080" y="400"/>
                        </Array>
                    </mxGeometry>
                </mxCell>
                <mxCell id="91" value="" style="endArrow=classic;html=1;shadow=0;entryX=0.25;entryY=1;entryDx=0;entryDy=0;exitX=0.25;exitY=0;exitDx=0;exitDy=0;" parent="5" source="37" target="43" edge="1">
                    <mxGeometry width="50" height="50" relative="1" as="geometry">
                        <mxPoint x="1090" y="410" as="sourcePoint"/>
                        <mxPoint x="1140" y="360" as="targetPoint"/>
                    </mxGeometry>
                </mxCell>
                <mxCell id="92" value="" style="endArrow=classic;html=1;shadow=0;exitX=0.75;exitY=1;exitDx=0;exitDy=0;entryX=0.75;entryY=0;entryDx=0;entryDy=0;" parent="5" source="43" target="37" edge="1">
                    <mxGeometry width="50" height="50" relative="1" as="geometry">
                        <mxPoint x="1090" y="410" as="sourcePoint"/>
                        <mxPoint x="1140" y="360" as="targetPoint"/>
                    </mxGeometry>
                </mxCell>
                <mxCell id="93" value="" style="endArrow=classic;html=1;shadow=0;exitX=0.32;exitY=0.999;exitDx=0;exitDy=0;exitPerimeter=0;entryX=0.32;entryY=-0.001;entryDx=0;entryDy=0;entryPerimeter=0;endSize=6;spacing=2;" parent="5" source="43" target="37" edge="1">
                    <mxGeometry width="50" height="50" relative="1" as="geometry">
                        <mxPoint x="880" y="310" as="sourcePoint"/>
                        <mxPoint x="930" y="260" as="targetPoint"/>
                    </mxGeometry>
                </mxCell>
                <mxCell id="95" value="" style="endArrow=classic;html=1;shadow=0;entryX=0.25;entryY=1;entryDx=0;entryDy=0;exitX=0.25;exitY=0;exitDx=0;exitDy=0;" parent="5" edge="1">
                    <mxGeometry width="50" height="50" relative="1" as="geometry">
                        <mxPoint x="930" y="320" as="sourcePoint"/>
                        <mxPoint x="930" y="240" as="targetPoint"/>
                    </mxGeometry>
                </mxCell>
                <mxCell id="96" value="8080:51" style="text;html=1;strokeColor=none;fillColor=none;align=center;verticalAlign=middle;whiteSpace=wrap;rounded=0;" parent="5" vertex="1">
                    <mxGeometry x="780" y="270" width="60" height="30" as="geometry"/>
                </mxCell>
                <mxCell id="97" value="8080:80" style="text;html=1;strokeColor=none;fillColor=none;align=center;verticalAlign=middle;whiteSpace=wrap;rounded=0;" parent="5" vertex="1">
                    <mxGeometry x="930" y="270" width="60" height="30" as="geometry"/>
                </mxCell>
                <mxCell id="98" value="51:51" style="text;html=1;strokeColor=none;fillColor=none;align=center;verticalAlign=middle;whiteSpace=wrap;rounded=0;" parent="5" vertex="1">
                    <mxGeometry x="710" y="370" width="60" height="30" as="geometry"/>
                </mxCell>
                <mxCell id="99" value="5050:5050" style="text;html=1;strokeColor=none;fillColor=none;align=center;verticalAlign=middle;whiteSpace=wrap;rounded=0;" parent="5" vertex="1">
                    <mxGeometry x="990" y="370" width="60" height="30" as="geometry"/>
                </mxCell>
                <mxCell id="100" value="51:51" style="text;html=1;strokeColor=none;fillColor=none;align=center;verticalAlign=middle;whiteSpace=wrap;rounded=0;" parent="5" vertex="1">
                    <mxGeometry x="670" y="745" width="60" height="30" as="geometry"/>
                </mxCell>
                <mxCell id="101" value="50054:50054" style="text;html=1;strokeColor=none;fillColor=none;align=center;verticalAlign=middle;whiteSpace=wrap;rounded=0;" parent="5" vertex="1">
                    <mxGeometry x="780" y="850" width="60" height="30" as="geometry"/>
                </mxCell>
                <mxCell id="102" value="50051:50051" style="text;html=1;strokeColor=none;fillColor=none;align=center;verticalAlign=middle;whiteSpace=wrap;rounded=0;" parent="5" vertex="1">
                    <mxGeometry x="1160" y="810" width="60" height="30" as="geometry"/>
                </mxCell>
                <mxCell id="103" value="50053:50053" style="text;html=1;strokeColor=none;fillColor=none;align=center;verticalAlign=middle;whiteSpace=wrap;rounded=0;" parent="5" vertex="1">
                    <mxGeometry x="1160" y="1010" width="60" height="30" as="geometry"/>
                </mxCell>
                <mxCell id="105" value="50052:50052" style="text;html=1;strokeColor=none;fillColor=none;align=center;verticalAlign=middle;whiteSpace=wrap;rounded=0;" parent="5" vertex="1">
                    <mxGeometry x="930" y="1010" width="60" height="30" as="geometry"/>
                </mxCell>
                <mxCell id="33" value="&lt;font style=&quot;font-size: 20px;&quot;&gt;RedisDB&lt;/font&gt;" style="shape=cylinder3;whiteSpace=wrap;html=1;boundedLbl=1;backgroundOutline=1;size=15;strokeWidth=3;fontSize=16;" parent="5" vertex="1">
                    <mxGeometry x="1440" y="600" width="160" height="160" as="geometry"/>
                </mxCell>
                <mxCell id="34" value="&lt;font style=&quot;font-size: 20px;&quot;&gt;MongoDB&lt;/font&gt;" style="shape=cylinder3;whiteSpace=wrap;html=1;boundedLbl=1;backgroundOutline=1;size=15;strokeWidth=3;fontSize=16;" parent="5" vertex="1">
                    <mxGeometry x="280" y="800" width="160" height="160" as="geometry"/>
                </mxCell>
                <mxCell id="35" value="&lt;font style=&quot;font-size: 20px;&quot;&gt;{ }&lt;br&gt;Apache&lt;br&gt;Cassandra&lt;/font&gt;" style="shape=cylinder3;whiteSpace=wrap;html=1;boundedLbl=1;backgroundOutline=1;size=15;strokeWidth=3;fontSize=16;" parent="5" vertex="1">
                    <mxGeometry x="40" y="1160" width="160" height="160" as="geometry"/>
                </mxCell>
                <mxCell id="36" value="&lt;font style=&quot;font-size: 20px;&quot;&gt;Postgres&lt;br&gt;SQL&lt;/font&gt;" style="shape=cylinder3;whiteSpace=wrap;html=1;boundedLbl=1;backgroundOutline=1;size=15;strokeWidth=3;fontSize=16;" parent="5" vertex="1">
                    <mxGeometry x="840" y="1480" width="160" height="160" as="geometry"/>
                </mxCell>
                <mxCell id="39" value="S3 Yandex Cloud" style="ellipse;shape=cloud;whiteSpace=wrap;html=1;strokeWidth=3;fontSize=20;" parent="5" vertex="1">
                    <mxGeometry x="1635" y="330" width="250" height="200" as="geometry"/>
                </mxCell>
                <mxCell id="44" value="" style="swimlane;startSize=0;strokeWidth=3;fontSize=20;" parent="5" vertex="1">
                    <mxGeometry x="1560" y="1720" width="160" height="160" as="geometry"/>
                </mxCell>
                <mxCell id="47" value="&lt;font style=&quot;font-size: 20px;&quot;&gt;Микросервис&lt;br&gt;Grafana&lt;br&gt;&lt;/font&gt;" style="text;html=1;align=center;verticalAlign=middle;resizable=0;points=[];autosize=1;strokeColor=none;fillColor=none;fontSize=20;" parent="44" vertex="1">
                    <mxGeometry x="5" y="50" width="150" height="60" as="geometry"/>
                </mxCell>
                <mxCell id="45" value="" style="swimlane;startSize=0;strokeWidth=3;fontSize=20;" parent="5" vertex="1">
                    <mxGeometry x="1320" y="1720" width="160" height="160" as="geometry"/>
                </mxCell>
                <mxCell id="48" value="&lt;font style=&quot;font-size: 20px;&quot;&gt;Микросервис&lt;br&gt;Prometheus&lt;/font&gt;" style="text;html=1;align=center;verticalAlign=middle;resizable=0;points=[];autosize=1;strokeColor=none;fillColor=none;fontSize=20;" parent="45" vertex="1">
                    <mxGeometry x="5" y="50" width="150" height="60" as="geometry"/>
                </mxCell>
                <mxCell id="52" value="" style="swimlane;startSize=0;strokeWidth=3;fontSize=20;" parent="5" vertex="1">
                    <mxGeometry x="1080" y="1480" width="160" height="160" as="geometry"/>
                </mxCell>
                <mxCell id="53" value="Postgress&lt;br&gt;Exporter" style="text;html=1;align=center;verticalAlign=middle;resizable=0;points=[];autosize=1;strokeColor=none;fillColor=none;fontSize=20;" parent="52" vertex="1">
                    <mxGeometry x="25" y="50" width="110" height="60" as="geometry"/>
                </mxCell>
                <mxCell id="54" value="" style="swimlane;startSize=0;strokeWidth=3;fontSize=20;" parent="5" vertex="1">
                    <mxGeometry x="280" y="1160" width="160" height="160" as="geometry"/>
                </mxCell>
                <mxCell id="55" value="&lt;font style=&quot;font-size: 20px;&quot;&gt;Mongo&lt;br&gt;Exporter&lt;br&gt;&lt;/font&gt;" style="text;html=1;align=center;verticalAlign=middle;resizable=0;points=[];autosize=1;strokeColor=none;fillColor=none;fontSize=20;" parent="54" vertex="1">
                    <mxGeometry x="30" y="50" width="100" height="60" as="geometry"/>
                </mxCell>
                <mxCell id="56" value="" style="swimlane;startSize=0;strokeWidth=3;fontSize=20;" parent="5" vertex="1">
                    <mxGeometry x="40" y="1560" width="160" height="160" as="geometry"/>
                </mxCell>
                <mxCell id="57" value="Cassandra&lt;br&gt;Exporter" style="text;html=1;align=center;verticalAlign=middle;resizable=0;points=[];autosize=1;strokeColor=none;fillColor=none;fontSize=20;" parent="56" vertex="1">
                    <mxGeometry x="20" y="50" width="120" height="60" as="geometry"/>
                </mxCell>
                <mxCell id="65" value="" style="swimlane;startSize=0;strokeWidth=3;fontSize=20;" parent="5" vertex="1">
                    <mxGeometry x="2400" y="960" width="160" height="160" as="geometry"/>
                </mxCell>
                <mxCell id="66" value="&lt;font style=&quot;font-size: 20px;&quot;&gt;ElasticSearch&lt;br&gt;&lt;/font&gt;" style="text;html=1;align=center;verticalAlign=middle;resizable=0;points=[];autosize=1;strokeColor=none;fillColor=none;fontSize=20;" parent="65" vertex="1">
                    <mxGeometry x="5" y="60" width="150" height="40" as="geometry"/>
                </mxCell>
                <mxCell id="67" value="" style="swimlane;startSize=0;strokeWidth=3;fontSize=20;" parent="5" vertex="1">
                    <mxGeometry x="480" y="1720" width="160" height="160" as="geometry"/>
                </mxCell>
                <mxCell id="68" value="&lt;font style=&quot;font-size: 20px;&quot;&gt;Kafka&lt;br&gt;JMX Exporter&lt;br&gt;&lt;/font&gt;" style="text;html=1;align=center;verticalAlign=middle;resizable=0;points=[];autosize=1;strokeColor=none;fillColor=none;fontSize=20;" parent="67" vertex="1">
                    <mxGeometry x="10" y="50" width="140" height="60" as="geometry"/>
                </mxCell>
                <mxCell id="69" value="" style="swimlane;startSize=0;strokeWidth=3;fontSize=20;" parent="5" vertex="1">
                    <mxGeometry x="2160" y="960" width="160" height="160" as="geometry"/>
                </mxCell>
                <mxCell id="70" value="&lt;font style=&quot;font-size: 20px;&quot;&gt;Logstash&lt;br&gt;&lt;/font&gt;" style="text;html=1;align=center;verticalAlign=middle;resizable=0;points=[];autosize=1;strokeColor=none;fillColor=none;fontSize=20;" parent="69" vertex="1">
                    <mxGeometry x="30" y="60" width="100" height="40" as="geometry"/>
                </mxCell>
                <mxCell id="71" value="" style="swimlane;startSize=0;strokeWidth=3;fontSize=20;" parent="5" vertex="1">
                    <mxGeometry x="2400" y="720" width="160" height="160" as="geometry"/>
                </mxCell>
                <mxCell id="72" value="&lt;font style=&quot;font-size: 20px;&quot;&gt;Kibana&lt;br&gt;&lt;/font&gt;" style="text;html=1;align=center;verticalAlign=middle;resizable=0;points=[];autosize=1;strokeColor=none;fillColor=none;fontSize=20;" parent="71" vertex="1">
                    <mxGeometry x="35" y="60" width="90" height="40" as="geometry"/>
                </mxCell>
                <mxCell id="106" value="" style="endArrow=classic;startArrow=classic;html=1;shadow=0;endSize=6;exitX=1;exitY=0.25;exitDx=0;exitDy=0;" parent="5" source="26" target="39" edge="1">
                    <mxGeometry width="50" height="50" relative="1" as="geometry">
                        <mxPoint x="1360" y="540" as="sourcePoint"/>
                        <mxPoint x="1410" y="490" as="targetPoint"/>
                        <Array as="points">
                            <mxPoint x="1405" y="600"/>
                            <mxPoint x="1405" y="430"/>
                        </Array>
                    </mxGeometry>
                </mxCell>
                <mxCell id="107" value="HTTPS" style="text;html=1;strokeColor=none;fillColor=none;align=center;verticalAlign=middle;whiteSpace=wrap;rounded=0;" parent="5" vertex="1">
                    <mxGeometry x="1250" y="570" width="60" height="30" as="geometry"/>
                </mxCell>
                <mxCell id="108" value="" style="endArrow=classic;startArrow=classic;html=1;shadow=0;endSize=6;" parent="5" source="36" target="29" edge="1">
                    <mxGeometry width="50" height="50" relative="1" as="geometry">
                        <mxPoint x="1260" y="1340" as="sourcePoint"/>
                        <mxPoint x="1310" y="1290" as="targetPoint"/>
                    </mxGeometry>
                </mxCell>
                <mxCell id="109" value="" style="endArrow=classic;startArrow=classic;html=1;shadow=0;endSize=6;" parent="5" source="34" target="20" edge="1">
                    <mxGeometry width="50" height="50" relative="1" as="geometry">
                        <mxPoint x="550" y="860" as="sourcePoint"/>
                        <mxPoint x="600" y="810" as="targetPoint"/>
                    </mxGeometry>
                </mxCell>
                <mxCell id="110" value="" style="endArrow=classic;startArrow=classic;html=1;shadow=0;endSize=6;" parent="5" source="35" target="22" edge="1">
                    <mxGeometry width="50" height="50" relative="1" as="geometry">
                        <mxPoint x="980" y="1050" as="sourcePoint"/>
                        <mxPoint x="1030" y="1000" as="targetPoint"/>
                        <Array as="points">
                            <mxPoint x="120" y="640"/>
                        </Array>
                    </mxGeometry>
                </mxCell>
                <mxCell id="112" value="" style="endArrow=classic;html=1;" parent="5" source="45" target="44" edge="1">
                    <mxGeometry width="50" height="50" relative="1" as="geometry">
                        <mxPoint x="1610" y="1830" as="sourcePoint"/>
                        <mxPoint x="1660" y="1780" as="targetPoint"/>
                    </mxGeometry>
                </mxCell>
                <mxCell id="114" value="" style="endArrow=classic;html=1;exitX=0.5;exitY=1;exitDx=0;exitDy=0;" parent="5" source="26" target="123" edge="1">
                    <mxGeometry width="50" height="50" relative="1" as="geometry">
                        <mxPoint x="850" y="1050" as="sourcePoint"/>
                        <mxPoint x="680" y="1160" as="targetPoint"/>
                        <Array as="points">
                            <mxPoint x="1080" y="960"/>
                            <mxPoint x="840" y="960"/>
                            <mxPoint x="840" y="1080"/>
                            <mxPoint x="680" y="1080"/>
                        </Array>
                    </mxGeometry>
                </mxCell>
                <mxCell id="115" value="" style="endArrow=classic;html=1;" parent="5" target="24" edge="1">
                    <mxGeometry width="50" height="50" relative="1" as="geometry">
                        <mxPoint x="736" y="1310" as="sourcePoint"/>
                        <mxPoint x="830" y="1470" as="targetPoint"/>
                        <Array as="points">
                            <mxPoint x="736" y="1640"/>
                            <mxPoint x="800" y="1640"/>
                        </Array>
                    </mxGeometry>
                </mxCell>
                <mxCell id="116" value="9092:9092" style="text;html=1;strokeColor=none;fillColor=none;align=center;verticalAlign=middle;whiteSpace=wrap;rounded=0;" parent="5" vertex="1">
                    <mxGeometry x="730" y="1050" width="60" height="30" as="geometry"/>
                </mxCell>
                <mxCell id="117" value="9017:9017" style="text;html=1;strokeColor=none;fillColor=none;align=center;verticalAlign=middle;whiteSpace=wrap;rounded=0;" parent="5" vertex="1">
                    <mxGeometry x="750" y="1600" width="60" height="30" as="geometry"/>
                </mxCell>
                <mxCell id="50" value="" style="swimlane;startSize=0;strokeWidth=3;fontSize=20;" parent="5" vertex="1">
                    <mxGeometry x="1680" y="600" width="160" height="160" as="geometry"/>
                </mxCell>
                <mxCell id="51" value="&lt;font style=&quot;font-size: 20px;&quot;&gt;Redis&lt;br&gt;Exporter&lt;br&gt;&lt;/font&gt;" style="text;html=1;align=center;verticalAlign=middle;resizable=0;points=[];autosize=1;strokeColor=none;fillColor=none;fontSize=20;" parent="50" vertex="1">
                    <mxGeometry x="30" y="50" width="100" height="60" as="geometry"/>
                </mxCell>
                <mxCell id="118" value="" style="endArrow=classic;html=1;" parent="5" source="33" target="50" edge="1">
                    <mxGeometry width="50" height="50" relative="1" as="geometry">
                        <mxPoint x="1800" y="930" as="sourcePoint"/>
                        <mxPoint x="1850" y="880" as="targetPoint"/>
                    </mxGeometry>
                </mxCell>
                <mxCell id="119" value="" style="endArrow=classic;html=1;" parent="5" source="36" target="52" edge="1">
                    <mxGeometry width="50" height="50" relative="1" as="geometry">
                        <mxPoint x="1200" y="1400" as="sourcePoint"/>
                        <mxPoint x="1250" y="1350" as="targetPoint"/>
                    </mxGeometry>
                </mxCell>
                <mxCell id="120" value="" style="endArrow=classic;startArrow=classic;html=1;exitX=1;exitY=0.75;exitDx=0;exitDy=0;" parent="5" source="26" target="33" edge="1">
                    <mxGeometry width="50" height="50" relative="1" as="geometry">
                        <mxPoint x="1040" y="760" as="sourcePoint"/>
                        <mxPoint x="1090" y="710" as="targetPoint"/>
                    </mxGeometry>
                </mxCell>
                <mxCell id="121" value="" style="endArrow=classic;html=1;" parent="5" source="34" target="54" edge="1">
                    <mxGeometry width="50" height="50" relative="1" as="geometry">
                        <mxPoint x="420" y="1030" as="sourcePoint"/>
                        <mxPoint x="470" y="980" as="targetPoint"/>
                    </mxGeometry>
                </mxCell>
                <mxCell id="122" value="" style="endArrow=classic;html=1;" parent="5" source="35" target="56" edge="1">
                    <mxGeometry width="50" height="50" relative="1" as="geometry">
                        <mxPoint x="60" y="1370" as="sourcePoint"/>
                        <mxPoint x="110" y="1320" as="targetPoint"/>
                    </mxGeometry>
                </mxCell>
                <mxCell id="123" value="&lt;span style=&quot;font-size: 20px;&quot;&gt;Kafka&lt;/span&gt;" style="shape=datastore;whiteSpace=wrap;html=1;" parent="5" vertex="1">
                    <mxGeometry x="600" y="1160" width="160" height="160" as="geometry"/>
                </mxCell>
                <mxCell id="125" value="" style="endArrow=classic;html=1;entryX=0.5;entryY=0;entryDx=0;entryDy=0;exitX=0.15;exitY=0.95;exitDx=0;exitDy=0;exitPerimeter=0;" parent="5" source="123" target="67" edge="1">
                    <mxGeometry width="50" height="50" relative="1" as="geometry">
                        <mxPoint x="630" y="1330" as="sourcePoint"/>
                        <mxPoint x="990" y="1470" as="targetPoint"/>
                        <Array as="points">
                            <mxPoint x="624" y="1640"/>
                            <mxPoint x="560" y="1640"/>
                        </Array>
                    </mxGeometry>
                </mxCell>
                <mxCell id="129" value="" style="endArrow=classic;html=1;exitX=0.5;exitY=1;exitDx=0;exitDy=0;dashed=1;entryX=0.25;entryY=1;entryDx=0;entryDy=0;" parent="5" source="67" target="45" edge="1">
                    <mxGeometry width="50" height="50" relative="1" as="geometry">
                        <mxPoint x="650" y="1900" as="sourcePoint"/>
                        <mxPoint x="560" y="1960" as="targetPoint"/>
                        <Array as="points">
                            <mxPoint x="560" y="1960"/>
                            <mxPoint x="1360" y="1960"/>
                        </Array>
                    </mxGeometry>
                </mxCell>
                <mxCell id="127" value="" style="endArrow=classic;html=1;dashed=1;entryX=0.5;entryY=1;entryDx=0;entryDy=0;" parent="5" source="54" target="45" edge="1">
                    <mxGeometry width="50" height="50" relative="1" as="geometry">
                        <mxPoint x="690" y="1590" as="sourcePoint"/>
                        <mxPoint x="360" y="2000" as="targetPoint"/>
                        <Array as="points">
                            <mxPoint x="360" y="2000"/>
                            <mxPoint x="1400" y="2000"/>
                        </Array>
                    </mxGeometry>
                </mxCell>
                <mxCell id="128" value="" style="endArrow=classic;html=1;exitX=0.5;exitY=1;exitDx=0;exitDy=0;dashed=1;entryX=0.75;entryY=1;entryDx=0;entryDy=0;" parent="5" source="56" target="45" edge="1">
                    <mxGeometry width="50" height="50" relative="1" as="geometry">
                        <mxPoint x="370" y="1330" as="sourcePoint"/>
                        <mxPoint x="120" y="2040" as="targetPoint"/>
                        <Array as="points">
                            <mxPoint x="120" y="2040"/>
                            <mxPoint x="1440" y="2040"/>
                        </Array>
                    </mxGeometry>
                </mxCell>
                <mxCell id="130" value="" style="endArrow=classic;html=1;dashed=1;exitX=0.5;exitY=1;exitDx=0;exitDy=0;entryX=0;entryY=0.5;entryDx=0;entryDy=0;" parent="5" source="52" target="45" edge="1">
                    <mxGeometry width="50" height="50" relative="1" as="geometry">
                        <mxPoint x="1600" y="1630" as="sourcePoint"/>
                        <mxPoint x="1650" y="1580" as="targetPoint"/>
                        <Array as="points">
                            <mxPoint x="1160" y="1800"/>
                        </Array>
                    </mxGeometry>
                </mxCell>
                <mxCell id="131" value="" style="endArrow=classic;html=1;dashed=1;exitX=0.5;exitY=1;exitDx=0;exitDy=0;entryX=0.5;entryY=0;entryDx=0;entryDy=0;" parent="5" source="50" target="45" edge="1">
                    <mxGeometry width="50" height="50" relative="1" as="geometry">
                        <mxPoint x="1600" y="1060" as="sourcePoint"/>
                        <mxPoint x="1650" y="1010" as="targetPoint"/>
                        <Array as="points">
                            <mxPoint x="1760" y="1400"/>
                            <mxPoint x="1400" y="1400"/>
                        </Array>
                    </mxGeometry>
                </mxCell>
                <mxCell id="132" value="" style="endArrow=classic;startArrow=classic;html=1;" parent="5" source="65" target="71" edge="1">
                    <mxGeometry width="50" height="50" relative="1" as="geometry">
                        <mxPoint x="2110" y="990" as="sourcePoint"/>
                        <mxPoint x="2160" y="940" as="targetPoint"/>
                    </mxGeometry>
                </mxCell>
                <mxCell id="133" value="" style="endArrow=classic;html=1;" parent="5" source="69" target="65" edge="1">
                    <mxGeometry width="50" height="50" relative="1" as="geometry">
                        <mxPoint x="2110" y="990" as="sourcePoint"/>
                        <mxPoint x="2160" y="940" as="targetPoint"/>
                    </mxGeometry>
                </mxCell>
                <mxCell id="134" value="&lt;br style=&quot;font-size: 20px;&quot;&gt;&lt;span style=&quot;font-size: 20px;&quot;&gt;* - Json&lt;/span&gt;" style="shape=note;whiteSpace=wrap;html=1;backgroundOutline=1;darkOpacity=0.05;strokeWidth=3;" parent="5" vertex="1">
                    <mxGeometry x="1920" y="960" width="120" height="160" as="geometry"/>
                </mxCell>
                <mxCell id="135" value="" style="endArrow=classic;html=1;" parent="5" source="134" target="69" edge="1">
                    <mxGeometry width="50" height="50" relative="1" as="geometry">
                        <mxPoint x="2160" y="990" as="sourcePoint"/>
                        <mxPoint x="2210" y="940" as="targetPoint"/>
                    </mxGeometry>
                </mxCell>
                <mxCell id="136" value="" style="swimlane;startSize=0;strokeWidth=3;fontSize=20;" parent="5" vertex="1">
                    <mxGeometry x="1160" y="240" width="160" height="160" as="geometry"/>
                </mxCell>
                <mxCell id="137" value="&lt;font style=&quot;font-size: 20px;&quot;&gt;Swagger&lt;br&gt;&lt;/font&gt;" style="text;html=1;align=center;verticalAlign=middle;resizable=0;points=[];autosize=1;strokeColor=none;fillColor=none;fontSize=20;" parent="136" vertex="1">
                    <mxGeometry x="30" y="60" width="100" height="40" as="geometry"/>
                </mxCell>
                <mxCell id="138" value="" style="endArrow=classic;html=1;exitX=0.75;exitY=0;exitDx=0;exitDy=0;entryX=0.5;entryY=1;entryDx=0;entryDy=0;" parent="5" source="26" target="136" edge="1">
                    <mxGeometry width="50" height="50" relative="1" as="geometry">
                        <mxPoint x="1480" y="460" as="sourcePoint"/>
                        <mxPoint x="1530" y="410" as="targetPoint"/>
                        <Array as="points">
                            <mxPoint x="1120" y="480"/>
                            <mxPoint x="1240" y="480"/>
                        </Array>
                    </mxGeometry>
                </mxCell>
                <mxCell id="231" value="api/docs" style="text;html=1;strokeColor=none;fillColor=none;align=center;verticalAlign=middle;whiteSpace=wrap;rounded=0;" parent="5" vertex="1">
                    <mxGeometry x="1150" y="450" width="60" height="30" as="geometry"/>
                </mxCell>
                <mxCell id="232" value="" style="endArrow=classic;startArrow=classic;html=1;exitX=1;exitY=0.5;exitDx=0;exitDy=0;entryX=0.5;entryY=1;entryDx=0;entryDy=0;entryPerimeter=0;" parent="5" source="8" target="33" edge="1">
                    <mxGeometry width="50" height="50" relative="1" as="geometry">
                        <mxPoint x="1170" y="690" as="sourcePoint"/>
                        <mxPoint x="1450" y="690" as="targetPoint"/>
                        <Array as="points">
                            <mxPoint x="1520" y="1040"/>
                        </Array>
                    </mxGeometry>
                </mxCell>
                <mxCell id="233" value="&lt;font style=&quot;font-size: 20px;&quot;&gt;{ }&lt;br&gt;Apache&lt;br&gt;Cassandra&lt;/font&gt;" style="shape=cylinder3;whiteSpace=wrap;html=1;boundedLbl=1;backgroundOutline=1;size=15;strokeWidth=3;fontSize=16;" vertex="1" parent="5">
                    <mxGeometry x="280" y="80" width="160" height="160" as="geometry"/>
                </mxCell>
                <mxCell id="113" value="" style="endArrow=none;html=1;entryX=0.5;entryY=1;entryDx=0;entryDy=0;" parent="1" target="26" edge="1">
                    <mxGeometry width="50" height="50" relative="1" as="geometry">
                        <mxPoint x="1120" y="1080" as="sourcePoint"/>
                        <mxPoint x="1200" y="1000" as="targetPoint"/>
                    </mxGeometry>
                </mxCell>
                <mxCell id="237" value="" style="swimlane;startSize=0;strokeWidth=3;fontSize=16;" vertex="1" parent="1">
                    <mxGeometry x="320" y="360" width="160" height="160" as="geometry"/>
                </mxCell>
                <mxCell id="238" value="Микросервис&lt;br style=&quot;font-size: 20px;&quot;&gt;контента&lt;br&gt;&lt;br&gt;*" style="text;html=1;align=center;verticalAlign=middle;resizable=0;points=[];autosize=1;strokeColor=none;fillColor=none;fontSize=20;" vertex="1" parent="237">
                    <mxGeometry x="5" y="25" width="150" height="110" as="geometry"/>
                </mxCell>
                <mxCell id="239" value="" style="endArrow=classic;startArrow=classic;html=1;" edge="1" parent="1" source="237" target="233">
                    <mxGeometry width="50" height="50" relative="1" as="geometry">
                        <mxPoint x="700" y="300" as="sourcePoint"/>
                        <mxPoint x="750" y="250" as="targetPoint"/>
                    </mxGeometry>
                </mxCell>
            </root>
        </mxGraphModel>
    </diagram>
</mxfile>